<?xml version="1.0" encoding="UTF-8"?>
<!DOCTYPE svg PUBLIC "-//W3C//DTD SVG 1.1//EN" "http://www.w3.org/Graphics/SVG/1.1/DTD/svg11.dtd">
<!-- Creator: CorelDRAW -->
<svg xmlns="http://www.w3.org/2000/svg" xml:space="preserve" width="2480px" height="1748px" style="shape-rendering:geometricPrecision; text-rendering:geometricPrecision; image-rendering:optimizeQuality; fill-rule:evenodd; clip-rule:evenodd"
viewBox="0 0 2480 1747.81"
 xmlns:xlink="http://www.w3.org/1999/xlink">
 <defs>
  <style type="text/css">
   <![CDATA[
    .fil0 {fill:none}
    .fil5 {fill:#F39314}
    .fil2 {fill:#00A0E3;fill-rule:nonzero}
    .fil1 {fill:#0071AC;fill-rule:nonzero}
    .fil4 {fill:url(#id0)}
    .fil3 {fill:url(#id1)}
   ]]>
  </style>
  <linearGradient id="id0" gradientUnits="userSpaceOnUse" x1="810.777" y1="840.186" x2="369.826" y2="901.83">
   <stop offset="0" style="stop-color:#00A0E3"/>
   <stop offset="1" style="stop-color:#005B8C"/>
  </linearGradient>
  <linearGradient id="id1" gradientUnits="userSpaceOnUse" xlink:href="#id0" x1="818.406" y1="862.3" x2="818.355" y2="862.305">
  </linearGradient>
 </defs>
 <g id="Layer_x0020_1">
  <metadata id="CorelCorpID_0Corel-Layer"/>
  <rect class="fil0" width="2480" height="1747.81"/>
  <g id="_109388568">
   <g>
    <path id="_109390128" class="fil1" d="M983.133 892.969c4.16286,-0.373181 8.80636,-2.4552 13.9305,-6.13859 5.07101,-3.73535 11.5296,-9.76766 19.3759,-18.0946 18.9484,-20.4423 31.5456,-34.9078 37.7373,-43.3941 6.19173,-8.4875 9.34133,-14.9993 9.34133,-19.4834l0 -1.54705c0,-1.1219 -0.107467,-1.97573 -0.266895,-2.56267 -0.16061,-0.586933 -0.321219,-1.12072 -0.53379,-1.65451l42.3808 0c-6.88613,4.37661 -18.5752,14.8387 -35.1227,31.3318 -16.4932,16.5463 -35.8679,37.1504 -58.0733,61.863l51.6159 73.0726c1.01326,1.44194 2.4552,3.52278 4.37661,6.24488 11.4222,16.3338 20.7635,27.2753 27.9685,32.8269l-31.7582 0c-3.20274,0 -5.76541,-0.480648 -7.63368,-1.38762 -1.86709,-0.961295 -3.62907,-2.50834 -5.1773,-4.69783l-61.7567 -95.4363 -6.4043 0 0 22.098c0,31.385 0.586933,51.6147 1.81394,60.7423 1.17505,9.12758 3.20274,15.3193 6.13859,18.6815l-43.4484 0c2.93585,-3.1496 4.96354,-10.3014 6.13859,-21.5642 1.22701,-11.2627 1.81512,-35.3353 1.81512,-72.2719l0 -13.1298c0,-40.2469 -0.588114,-65.9208 -1.81512,-77.0229 -1.17505,-11.1021 -3.20274,-18.2008 -6.13859,-21.3504l43.4484 0c-2.93585,3.36217 -4.96354,9.5539 -6.13859,18.6283 -1.22701,9.07444 -1.81394,29.2498 -1.81394,60.5285l0 13.7179zm180.733 11.5828l64.7457 0 -30.2111 -82.734 -34.5346 82.734zm-71.3118 100.882c9.71451,-11.6891 19.429,-26.3152 29.251,-43.9291 9.76766,-17.6139 20.1222,-39.1781 30.9587,-64.5851 9.07326,-21.191 16.5463,-40.0862 22.418,-56.7932 5.92484,-16.6526 8.8595,-26.6883 8.8595,-29.9974 0,-1.70766 -0.212571,-3.30903 -0.640076,-4.96354 -0.426324,-1.60137 -1.01444,-3.31021 -1.86827,-5.07101l39.7119 0c15.5331,51.7222 30.158,95.33 43.9291,130.879 13.7711,35.549 25.6208,60.3691 35.4959,74.4602l-35.0152 0 -32.1857 -88.9789 -74.7803 0 -13.7179 33.6276 -0.321219 0.800686c-8.53947,20.4966 -12.8098,35.4416 -12.8098,44.6754 0,1.49509 0.106286,3.04331 0.373181,4.64469 0.266895,1.60137 0.641257,3.36217 1.17505,5.23044l-40.8338 0zm353.726 -115.614l0 -10.6215c0,-29.9974 -0.586933,-49.7996 -1.81512,-59.4078 -1.17387,-9.60823 -3.36217,-16.1731 -6.45863,-19.6959l43.9291 0c-3.09528,3.1496 -5.23044,11.049 -6.29802,23.7525 -1.12072,12.7566 -1.65451,43.1284 -1.65451,91.1672 0,35.4947 0.586933,58.6603 1.70766,69.5498 1.17387,10.8884 3.25589,17.8277 6.24488,20.8698l-43.9291 0c3.09646,-3.62907 5.28476,-10.5683 6.45863,-20.8166 1.22819,-10.1952 1.81512,-29.7848 1.81512,-58.6614l0 -24.3926 -95.6501 0 0 24.3926c0,31.3862 0.586933,51.669 1.81394,60.7966 1.17505,9.12758 3.20274,15.3193 6.13859,18.6815l-43.4484 0c2.93585,-3.1496 4.96354,-10.3014 6.13859,-21.5642 1.22701,-11.2627 1.81512,-35.3884 1.81512,-72.2719l0 -13.1842c0,-40.1925 -0.588114,-65.8664 -1.81512,-76.9686 -1.17505,-11.1021 -3.20274,-18.2008 -6.13859,-21.3504l43.4484 0c-2.93585,3.30903 -4.96354,9.5539 -6.13859,18.5752 -1.22701,9.07326 -1.81394,29.2498 -1.81394,60.5285l0 10.6215 95.6501 0zm211.264 115.614l0.906971 -30.2111c-6.67238,10.9958 -15.7456,19.3759 -27.169,25.3007 -11.4753,5.8717 -24.4989,8.80636 -39.125,8.80636 -22.5774,0 -39.125,-5.49733 -49.5858,-16.4932 -10.5152,-10.9947 -15.7468,-28.396 -15.7468,-52.1485 0,-6.35234 0.0543238,-13.7711 0.16061,-22.3117 0.106286,-8.48632 0.16061,-13.7179 0.16061,-15.6925 0,-42.1139 -0.588114,-68.9617 -1.81512,-80.4382 -1.17505,-11.5296 -3.20274,-18.8952 -6.13859,-22.1511l43.4484 0c-3.09528,2.93585 -5.28476,10.9958 -6.45863,24.18 -1.22701,13.183 -1.81512,42.1671 -1.81512,87.0031 0,32.8269 3.68339,54.4974 11.1033,65.0126 7.41874,10.4621 20.3891,15.6925 38.9112,15.6925 18.9484,0 32.4526,-6.51177 40.4063,-19.5353 7.95253,-13.0247 11.956,-36.2966 11.956,-69.7636 0,-42.2202 -0.586933,-69.1223 -1.70766,-80.5988 -1.17505,-11.5285 -3.25707,-18.8409 -6.24606,-21.9905l43.9291 0c-3.09528,3.1496 -5.28358,10.4621 -6.45863,21.9905 -1.22701,11.4765 -1.81394,38.3786 -1.81394,80.5988 0,42.2214 0.586933,69.1223 1.81394,80.7051 1.17505,11.5828 3.36335,18.8952 6.45863,22.0448l-35.1747 0zm93.7818 -180.947l0.961295 103.391c0.213752,24.8201 1.12072,42.5403 2.7221,53.2161 1.60137,10.729 4.27032,18.7878 7.89939,24.3394l-37.2035 0c4.16404,-5.3379 7.20617,-17.667 9.07444,-36.9898 1.86827,-19.3227 2.82956,-47.5581 2.82956,-84.6554 0,-32.8801 -0.85501,-54.2305 -2.56267,-64.0513 -1.76198,-9.87512 -4.85726,-16.3869 -9.34133,-19.6428l33.3076 0c6.03112,0 12.7566,5.6048 20.1766,16.8664 1.86827,2.93585 3.36217,5.23162 4.53604,6.88613 6.0323,8.86069 15.3725,22.8987 27.9697,42.0608 29.1967,44.5691 52.6823,78.89 70.4037,103.07l0.320038 -89.7264c0,-28.8235 -0.640076,-48.2525 -1.86827,-58.4465 -1.28015,-10.142 -3.41531,-17.0813 -6.56491,-20.7104l30.478 0c-3.09646,2.93585 -5.28476,10.729 -6.45863,23.3793 -1.22819,12.6492 -1.81512,38.2699 -1.81512,76.8611l0 40.9932 0 65.0669 -20.8166 0c-7.0987,-11.2627 -24.7669,-37.3642 -53.0023,-78.1968 -28.2897,-40.8869 -51.9359,-75.4747 -71.0449,-103.711zm233.203 80.065l64.7457 0 -30.2111 -82.734 -34.5346 82.734zm-71.3118 100.882c9.71451,-11.6891 19.429,-26.3152 29.251,-43.9291 9.76766,-17.6139 20.1222,-39.1781 30.9587,-64.5851 9.07326,-21.191 16.5463,-40.0862 22.418,-56.7932 5.92484,-16.6526 8.8595,-26.6883 8.8595,-29.9974 0,-1.70766 -0.212571,-3.30903 -0.640076,-4.96354 -0.426324,-1.60137 -1.01444,-3.31021 -1.86827,-5.07101l39.7119 0c15.5331,51.7222 30.158,95.33 43.9291,130.879 13.7711,35.549 25.6208,60.3691 35.4959,74.4602l-35.0152 0 -32.1857 -88.9789 -74.7803 0 -13.7179 33.6276 -0.321219 0.800686c-8.53947,20.4966 -12.8098,35.4416 -12.8098,44.6754 0,1.49509 0.106286,3.04331 0.373181,4.64469 0.266895,1.60137 0.641257,3.36217 1.17505,5.23044l-40.8338 0z"/>
    <path id="_109389960" class="fil2" d="M942.167 1073.69c1.40179,0.0708571 2.69375,0.126362 3.88297,0.157067 1.18804,0.0283429 2.27333,0.0389714 3.24053,0.0389714 1.81749,0 3.67394,-0.0649524 5.33554,-0.18541 1.78324,-0.128724 3.60072,-0.302324 5.332,-0.529067 -1.85055,1.26952 -3.9184,2.16114 -6.22126,2.66777 -2.29105,0.505448 -5.99924,0.759352 -10.9781,0.759352 -0.971924,0 -1.82339,0 -2.6725,0 -0.693219,0.966019 -1.3888,1.93676 -2.08084,2.90514 -2.10446,2.93821 -3.85109,5.37688 -5.22217,7.29002 -1.37581,1.92141 -2.13752,3.32556 -2.6347,4.19356 -1.00853,1.75253 -1.36636,2.94884 -1.20811,3.59718 -3.35036,0 -6.7019,0 -10.0523,0 1.18568,-0.609371 2.68076,-1.98518 4.49234,-4.14278 0.901067,-1.07585 2.24381,-2.75989 3.89714,-5.04267 1.64507,-2.27097 3.84046,-5.13832 6.3299,-8.57726 0.579848,-0.801867 1.16678,-1.61082 1.74663,-2.41387 2.66777,-3.68457 4.72145,-6.68655 6.3984,-9.00358 1.66632,-2.30404 2.73745,-3.94792 3.33501,-4.93756 1.18922,-1.97219 1.62617,-3.22282 1.31676,-3.78023 1.54114,0 3.20038,0 4.85962,0 1.06758,0 2.98545,-0.0271619 5.86933,-0.0838476 3.0067,-0.0566857 5.51269,-0.0850286 7.41048,-0.0850286 1.53996,0 2.94293,0.0295238 4.20537,0.0850286 1.2648,0.0578667 2.27451,0.138171 3.26415,0.252724 -1.08648,1.56476 -2.0584,3.13661 -3.03387,4.712 0.0106286,-1.04042 -0.671962,-1.77497 -2.15996,-2.2013 -1.48328,-0.425143 -4.19238,-0.63299 -8.11432,-0.63299 -0.83139,0 -1.78914,0.00944762 -2.64179,0.0366095 -0.850286,0.025981 -1.7171,0.0779429 -2.70792,0.132267 -0.840838,0.842019 -1.92613,2.19185 -3.3539,4.01878 -1.43486,1.83874 -3.33737,4.49234 -5.82564,7.96552 -0.668419,0.931771 -1.34038,1.87181 -2.0088,2.80358zm58.3745 20.8946c1.00263,-0.609371 2.36545,-1.98636 3.96918,-4.14632 0.797143,-1.07349 2.10446,-2.75989 3.53341,-5.03558 1.42659,-2.27097 3.34446,-5.13478 5.4997,-8.56899 0.505448,-0.80659 1.0168,-1.61672 1.52343,-2.42568 2.31112,-3.68575 4.07783,-6.68655 5.53158,-9.00358 1.4443,-2.30404 2.24027,-3.94674 2.74335,-4.93756 1.00145,-1.97101 1.3144,-3.22282 1.06994,-3.78023 3.20156,0 6.40194,0 9.60232,0 -0.923505,0.538514 -2.10328,1.79505 -3.58419,3.68221 -0.782971,0.996724 -2.01707,2.48118 -3.29958,4.55139 -1.29314,2.08202 -2.93939,4.7368 -4.9411,7.96316 -0.475924,0.765257 -0.950667,1.5376 -1.42659,2.30404 -0.4712,0.758171 -0.941219,1.51752 -1.4136,2.27924 -2.05131,3.31021 -3.75897,6.06183 -5.11707,8.25131 -1.36046,2.19185 -2.05131,3.84164 -2.51897,4.85726 -0.973105,2.10564 -1.37699,3.41886 -1.12072,4.00933 -3.35036,0 -6.70072,0 -10.0511,0zm90.9936 -33.5792c-1.67931,3.08583 -3.36926,6.19173 -5.07337,9.32362 -1.71474,3.15196 -3.26415,6.34998 -4.94465,9.53147 -2.4741,4.68011 -4.11208,8.01158 -4.85017,10.0499 -0.744,2.0525 -0.966019,3.60072 -0.800686,4.67421 -2.85554,0 -5.70872,0 -8.56309,0 1.56004,-1.02979 3.54286,-3.37162 5.99688,-7.08808 1.18804,-1.79741 2.60518,-4.07074 4.05421,-6.71608 1.44076,-2.6288 3.34564,-5.65676 5.21154,-9.06381 1.64152,-2.99844 2.86971,-5.44891 3.92194,-7.37387 1.0475,-1.91314 1.5376,-3.31375 1.8163,-4.18175 0.564495,-1.75726 0.523162,-2.9016 -0.109829,-3.47436 2.37135,0 4.85962,0 7.35025,0 1.30377,0 2.37253,0.97901 2.90514,2.98309 0.13581,0.513714 0.196038,0.936495 0.2976,1.22229 0.565676,1.58484 1.32857,4.09082 2.32411,7.56282 1.16324,4.05775 2.25208,7.69981 3.15196,10.8872 0.908152,3.20983 1.94503,5.96617 2.86617,8.2584 1.43958,-2.83074 2.8709,-5.64613 4.29276,-8.43909 1.41124,-2.77524 2.86381,-5.51623 4.32937,-8.27493 1.38408,-2.60636 2.20366,-4.80293 3.09528,-6.55901 0.886895,-1.74545 1.4443,-3.06575 1.78442,-3.96918 0.679048,-1.80331 0.826667,-3.02796 0.441676,-3.67158 2.25208,0 4.50651,0 6.75859,0 -0.971924,0.518438 -2.07848,1.92259 -3.51097,4.14278 -0.742819,1.15261 -1.9096,2.84255 -3.07284,5.14423 -1.16796,2.31585 -2.64651,5.23989 -4.43211,8.78038 -1.27543,2.52724 -2.5603,5.07101 -3.8499,7.62541 -1.03333,2.04423 -2.06903,4.092 -3.10709,6.15276 -1.04396,2.06903 -2.09265,4.14514 -3.14724,6.23661 -1.61318,0 -3.22636,0 -4.84072,0 -0.314133,-1.0853 -0.87981,-2.88034 -1.57303,-5.37688 -0.688495,-2.48 -1.74663,-5.64377 -2.9205,-9.47242 -1.16206,-3.79558 -2.34891,-7.2723 -3.3173,-10.4278 -0.961295,-3.12716 -1.82575,-5.96263 -2.48472,-8.48632zm98.6981 -1.99581c-0.60701,0.868 -1.36046,2.22019 -2.21901,4.10263 -0.850286,1.86118 -2.02179,4.47463 -3.41886,7.76358 -1.21166,2.852 -2.43512,5.73116 -3.66686,8.62804 -1.09356,2.57802 -1.96274,4.75688 -2.64415,6.5035 -0.696762,1.78796 -1.18331,3.01143 -1.32621,3.70701 -0.21139,1.01798 0.134629,1.72301 1.10773,2.05131 1.08175,0.366095 3.12008,0.526705 6.46217,0.526705 5.94019,0 11.2627,-1.4939 15.774,-4.50415 2.2013,-1.4691 4.1227,-3.27006 5.67566,-5.34853 1.54705,-2.07021 3.08583,-4.43093 4.12152,-7.07627 1.07821,-2.7528 1.54469,-5.1773 1.52697,-7.27112 -0.0177143,-2.0832 -0.514895,-3.85817 -1.612,-5.30956 -2.1824,-2.88625 -6.35943,-4.32347 -12.5382,-4.32347 -1.30613,0 -2.51661,0.0366095 -3.7389,0.128724 -1.10891,0.0838476 -2.35836,0.239733 -3.50389,0.4216zm-23.9037 35.575c0.884533,-0.609371 1.97691,-1.98636 3.15905,-4.14632 0.586933,-1.07349 1.56594,-2.76343 2.55086,-5.03912 0.982552,-2.27097 2.34301,-5.13478 3.82629,-8.56545 0.348381,-0.80659 0.700305,-1.61672 1.04869,-2.42568 1.59429,-3.68103 2.77524,-6.68537 3.7755,-9.00004 0.996724,-2.3064 1.47147,-3.95029 1.77851,-4.93756 0.616457,-1.97455 0.683771,-3.22636 0.330667,-3.78377 1.66042,0 3.32084,0 5.09817,0 2.13516,0 4.9104,-0.11219 8.55482,-0.330667 3.52514,-0.212571 6.06065,-0.333029 7.48251,-0.333029 6.51413,0 11.062,1.50099 13.6152,4.58564 1.2459,1.50571 2.03596,3.3728 2.05131,5.50678 0.0165333,2.13752 -0.320038,4.58682 -1.37463,7.34198 -1.23646,3.22518 -3.08701,6.1445 -5.18084,8.73314 -2.108,2.60518 -4.72617,4.8667 -7.80373,6.82 -6.1256,3.89006 -13.2208,5.86815 -21.289,5.86815 -1.73836,0 -3.95147,-0.0555048 -6.76331,-0.152343 -2.81303,-0.0992 -4.7805,-0.141714 -5.8965,-0.141714 -1.73836,0 -3.35036,0 -4.96354,0zm167.649 -0.00472381c0.844381,-0.947124 1.5813,-2.20602 2.24145,-3.72118 0.680229,-1.56122 1.28133,-3.3539 1.77261,-5.44419 0.441676,-1.88362 0.628267,-3.70583 0.798324,-5.46663 0.170057,-1.75253 0.0850286,-3.4531 -0.132267,-5.09581 -0.216114,-1.63326 -0.641257,-3.40469 -1.2707,-5.30956 -0.623543,-1.89425 -1.43722,-3.9243 -2.48354,-6.07246 -0.784152,-1.60846 -1.48682,-3.01261 -2.3123,-4.15813 -0.85501,-1.18686 -1.62971,-2.03242 -2.31112,-2.62526 1.89543,0 3.79322,0 5.80792,0 1.42305,0 2.41269,0.246819 3.03859,0.675505 0.699124,0.478286 1.17505,1.38998 1.71002,2.78232 0.860914,2.24263 1.54705,4.55966 2.17295,6.99714 0.628267,2.45048 1.1597,5.36389 1.71474,8.73669 2.75752,-3.06103 5.49615,-6.09608 8.2147,-9.10987 0.168876,-0.227924 0.388533,-0.418057 0.63181,-0.683771 3.23109,-3.54994 4.88206,-5.9083 5.12061,-7.01604 0.0921143,-0.427505 0.0602286,-0.837295 -0.0909333,-1.23055 -0.149981,-0.395619 -0.422781,-0.78179 -0.699124,-1.15143 2.96419,0 5.92956,0 9.01067,0 -2.08202,2.01943 -4.14278,3.89124 -5.81619,5.60126 -1.68404,1.71947 -3.31375,3.30312 -4.72145,4.6931 -2.88152,2.84255 -4.93402,5.04503 -6.27912,6.59444 -1.58602,1.82575 -2.77288,3.68693 -3.69874,5.62842 -0.93059,1.95211 -1.8659,4.98008 -2.80594,9.11459 -0.269257,1.1904 -0.397981,2.29931 -0.38499,3.32556 0.0141714,1.03215 0.164152,2.01234 0.452305,2.93585 -3.22636,0 -6.4539,0 -9.68027,0zm98.6757 -2.22846c4.45573,0 8.20762,-1.44549 10.9888,-4.31638 1.38408,-1.42895 2.54968,-3.13661 3.37162,-5.1088 0.816038,-1.9651 1.41832,-4.1971 1.67931,-6.69364 0.290514,-2.79295 0.0649524,-5.27531 -0.307048,-7.44472 -0.370819,-2.15288 -1.13017,-4.01878 -2.27806,-5.57764 -2.27806,-3.0941 -5.6733,-4.6376 -10.3085,-4.6376 -4.75333,0 -8.62095,1.364 -11.6076,4.092 -1.50335,1.37227 -2.81067,3.03387 -3.67985,4.96827 -0.872724,1.94503 -1.55177,4.1853 -1.90724,6.71726 -0.393257,2.7965 -0.381448,5.29893 -0.0791238,7.49078 0.303505,2.20484 1.30141,4.092 2.52724,5.69573 2.43749,3.18621 6.27794,4.81474 11.6005,4.81474zm-2.71855 2.976c-6.95581,0 -12.0894,-1.68876 -15.4173,-5.1147 -1.63208,-1.67931 -2.9075,-3.74244 -3.41295,-6.13387 -0.501905,-2.3749 -0.58221,-5.09581 -0.126362,-8.1403 0.493638,-3.29368 1.40651,-6.17756 2.73745,-8.6552 1.32267,-2.4611 3.20156,-4.52305 5.45128,-6.22716 4.4144,-3.34446 10.3085,-5.03322 17.6529,-5.03322 6.98888,0 12.2087,1.45966 15.4197,4.47699 1.5624,1.46674 2.64651,3.38107 3.26297,5.63905 0.62,2.26861 0.9672,4.93402 0.675505,7.98678 -0.299962,3.14842 -1.18331,6.00278 -2.40914,8.55246 -1.23055,2.56267 -3.19684,4.80411 -5.59299,6.76922 -4.75924,3.90187 -10.9144,5.87996 -18.241,5.87996zm112.395 -0.747543c-0.0165333,-1.93676 0.0909333,-3.87116 0.196038,-5.7973 -1.5872,2.10328 -3.6645,3.73535 -6.27912,4.85017 -2.71265,1.15615 -5.7099,1.69467 -9.06263,1.69467 -5.21627,0 -9.04846,-1.05813 -11.4789,-3.17204 -2.42095,-2.10564 -3.44011,-5.42175 -3.31848,-9.9011 0.0318857,-1.19158 0.073219,-2.57448 0.116914,-4.16286 0.0425143,-1.56949 0.0696762,-2.54023 0.0791238,-2.90396 0.105105,-3.86408 0.073219,-7.00541 0.139352,-9.42518 0.0661333,-2.41032 -0.00708571,-4.12743 -0.0968381,-5.15013 -0.179505,-2.04659 -0.62,-3.35272 -1.3144,-3.92549 3.20038,0 6.40194,0 9.72042,0 -0.7192,0.518438 -1.14198,1.94975 -1.50217,4.2845 -0.183048,1.18804 -0.538514,3.07048 -0.590476,5.6792 -0.0519619,2.62053 -0.121638,5.99333 -0.204305,10.1208 -0.0602286,3.04922 0.131086,5.60598 0.45939,7.64076 0.328305,2.04423 1.03924,3.57356 1.88598,4.57501 1.6923,2.00053 4.64941,3.00316 8.97878,3.00316 4.33173,0 7.45063,-1.23528 9.26221,-3.73417 0.883352,-1.2211 1.58248,-2.95474 1.9344,-5.14541 0.349562,-2.18358 0.6944,-4.82537 0.671962,-7.92301 -0.0295238,-3.87352 -0.175962,-7.0243 -0.193676,-9.4488 -0.0177143,-2.41269 -0.153524,-4.13097 -0.278705,-5.15368 -0.253905,-2.05013 -0.738095,-3.34091 -1.45493,-3.89832 3.20156,0 6.40312,0 9.7216,0 -0.58221,0.55741 -1.0723,1.84347 -1.35691,3.89832 -0.140533,1.01916 -0.312952,2.73981 -0.277524,5.15368 0.0377905,2.42331 0.0873905,5.57291 0.146438,9.4488 0.0590476,3.9125 0.109829,7.14476 0.1488,9.67672 0.0389714,2.54259 0.273981,4.38015 0.454667,5.47962 0.366095,2.2261 0.928229,3.63143 1.55886,4.23608 -2.72918,0 -5.45954,0 -8.0659,0zm64.4162 -37.8932c2.8461,0 5.9213,-0.0673143 9.34724,-0.196038 3.3043,-0.125181 5.43002,-0.193676 6.02168,-0.193676 3.55703,0 6.3736,0.591657 8.39421,1.84347 1.94975,1.20693 3.10236,3.04686 3.38933,5.43592 0.28461,2.37253 -0.4216,4.4829 -2.00762,6.34762 -1.58956,1.87063 -4.1971,3.42358 -7.69509,4.65413 1.91078,1.9651 3.83337,3.94084 5.7595,5.91893 1.93912,1.99109 4.03886,3.97154 6.08781,6.00278 1.99463,1.97691 3.77432,3.68339 5.42411,5.02613 1.65451,1.34865 3.15078,2.37371 4.35653,3.05394 -2.35836,0 -4.71554,0 -6.9499,0 -0.993181,0 -1.74899,-0.107467 -2.27097,-0.317676 -0.519619,-0.209029 -1.04632,-0.65661 -1.64034,-1.27779 -2.36545,-2.47528 -4.76396,-4.90686 -7.12587,-7.33726 -2.34537,-2.41859 -4.65531,-4.84781 -7.00305,-7.22152 -1.05105,-1.06404 -1.98754,-1.75017 -2.75989,-2.05604 -0.870362,-0.346019 -1.86945,-0.491276 -3.08229,-0.491276 -0.243276,0 -0.485371,0 -0.60701,0 0.113371,1.20339 0.227924,2.41505 0.343657,3.62552 0.276343,2.93112 0.512533,5.37215 0.692038,7.28175 0.184229,1.92495 0.642438,3.31139 0.895162,4.19829 0.494819,1.7419 1.02743,2.94766 1.71002,3.596 -3.35036,0 -6.70072,0 -10.0511,0 0.692038,-0.604648 0.983733,-1.98282 1.12545,-4.14632 0.0696762,-1.06994 0.00472381,-2.76343 -0.194857,-5.03912 -0.1984,-2.26979 -0.328305,-5.13242 -0.625905,-8.56072 -0.0708571,-0.804229 -0.142895,-1.61554 -0.213752,-2.42568 -0.321219,-3.67985 -0.70621,-6.68655 -0.906971,-9.00004 -0.201943,-2.30286 -0.429867,-3.95265 -0.673143,-4.93756 -0.490095,-1.9781 -0.995543,-3.22636 -1.75371,-3.78377 0.591657,0 1.30259,0 2.0147,0zm7.41756 16.8888c0.491276,0.0637714 0.982552,0.125181 1.47029,0.165333 0.487733,0.0389714 0.973105,0.0578667 1.57775,0.0578667 3.51215,0 6.18583,-0.771162 7.86869,-2.23554 1.73482,-1.50808 2.49417,-3.60072 2.18949,-6.32872 -0.252724,-2.25916 -1.15733,-3.93611 -2.7091,-5.03086 -1.5435,-1.09002 -3.7448,-1.63916 -6.7149,-1.63916 -1.06994,0 -1.90251,0.00826667 -2.61109,0.0401524 -0.591657,0.025981 -1.18095,0.0744 -1.76907,0.128724 -0.159429,0.814857 -0.153524,2.108 -0.105105,3.88061 0.050781,1.78678 0.1736,4.32819 0.487733,7.63958 0.0188952,0.212571 0.0401524,0.416876 0.0590476,0.622362 0.0873905,0.899886 0.172419,1.79977 0.256267,2.69966zm139.333 19.409c-0.576305,-2.23318 -1.14789,-4.45219 -1.7171,-6.66648 1.99227,1.99699 4.2349,3.56293 6.7456,4.60808 2.62408,1.09238 5.37688,1.6061 8.22415,1.6061 2.84728,0 4.96709,-0.723924 6.34171,-2.09855 1.41832,-1.42069 1.8104,-3.17558 1.19985,-5.32491 -0.475924,-1.67105 -1.53406,-3.11417 -3.08465,-4.40613 -1.4821,-1.23764 -3.87116,-2.51897 -7.01368,-3.7507 -0.264533,-0.105105 -0.564495,-0.227924 -1.0912,-0.432229 -4.62933,-1.79859 -8.2584,-3.65032 -10.6699,-5.4749 -2.40678,-1.82221 -3.9621,-3.65387 -4.43802,-5.48789 -0.73219,-2.82838 0.106286,-5.11707 2.37253,-6.88495 2.26389,-1.76552 5.45836,-2.64888 9.84088,-2.64888 1.42069,0 2.97364,0.0389714 4.77105,0.116914 1.6805,0.0708571 2.63589,0.101562 2.87208,0.101562 0.119276,0 0.35901,0.0153524 0.602286,0.0318857 0.239733,0.0165333 0.598743,0.023619 0.718019,0.023619 0.591657,0 1.18568,0 1.77733,0 0.573943,1.9651 1.14552,3.93848 1.72065,5.91657 -1.18568,-1.20811 -2.74808,-2.14697 -4.4888,-2.75989 -1.83166,-0.643619 -3.83337,-0.935314 -5.97208,-0.935314 -2.9701,0 -5.11234,0.496 -6.5909,1.55177 -1.4136,1.00971 -1.84347,2.4493 -1.37109,4.21718 0.70739,2.64061 4.54785,5.35562 11.6985,8.0541 0.253905,0.0956571 0.405067,0.116914 0.530248,0.164152 4.48408,1.7171 7.78602,3.41531 10.0712,5.13832 2.2261,1.67931 3.61962,3.63497 4.25615,5.81265 0.951848,3.24644 0.134629,6.01813 -2.49653,8.36823 -2.5851,2.30994 -6.1941,3.5027 -11.0384,3.5027 -1.86354,0 -4.02587,-0.194857 -6.23897,-0.573943 -2.20956,-0.377905 -4.72027,-0.962476 -7.53093,-1.76907zm109.069 -20.1671c-0.256267,-0.6448 -0.514895,-1.2896 -0.7688,-1.93794 -1.07939,-2.73036 -2.09029,-4.98126 -2.79177,-6.75977 -0.699124,-1.77025 -1.46202,-3.08701 -1.91669,-3.93848 -0.914057,-1.70884 -1.84583,-2.86971 -2.80358,-3.49444 3.20156,0 6.40312,0 9.7216,0 -0.485371,0.55741 -0.395619,1.9592 0.277524,4.21364 0.337752,1.1349 0.88099,3.0693 1.98164,5.80438 1.10891,2.75162 2.55558,6.33345 4.33882,10.762 1.33093,3.30549 2.44339,6.0571 3.32202,8.24187 0.885714,2.19657 1.8541,3.79322 2.45166,4.85844 1.15851,2.0643 2.12926,3.42712 2.98781,4.01288 -3.47436,0 -6.82472,0 -10.1751,0 0.466476,-0.703848 0.43341,-2.03478 -0.0956571,-4.00461 -0.26099,-0.969562 -0.575124,-2.38907 -1.3085,-4.24434 -0.73101,-1.84701 -1.51162,-4.13215 -2.5792,-6.83299 -0.5952,-1.50808 -1.19158,-3.01379 -1.78678,-4.51478 -7.27349,0 -14.5482,0 -21.7,0 0.556229,1.50099 1.11364,3.0067 1.66869,4.51478 1.08411,2.93585 1.98518,5.37333 2.69257,7.28766 0.710933,1.92141 1.44076,3.33855 1.92023,4.19829 0.987276,1.76552 1.8352,2.94766 2.8213,3.596 -3.35036,0 -6.70072,0 -10.0511,0 0.400343,-0.609371 0.3968,-1.984 -0.13581,-4.14632 -0.264533,-1.07585 -0.752267,-2.76461 -1.57657,-5.04267 -0.8184,-2.26743 -1.61082,-5.13006 -2.85082,-8.55718 -0.291695,-0.810133 -0.589295,-1.62381 -0.882171,-2.4363 -1.33093,-3.67985 -2.65714,-6.67474 -3.49208,-8.98587 -0.833752,-2.30522 -1.54823,-3.9491 -2.02415,-4.9352 -0.951848,-1.97691 -1.88126,-3.23227 -2.67368,-3.78968 3.1992,0 6.40076,0 9.60232,0 -0.494819,0.581029 -0.478286,1.69467 -0.204305,3.28895 0.140533,0.814857 0.428686,2.11981 1.0912,3.9184 0.670781,1.8163 1.52815,4.1416 2.57802,6.98533 0.238552,0.648343 0.479467,1.29314 0.718019,1.93794 7.13413,0 14.3887,0 21.6433,0zm95.8461 19.5306c4.45691,0 7.3467,-1.43722 8.43318,-4.31638 0.534971,-1.41596 0.602286,-3.13779 0.1984,-5.10998 -0.401524,-1.96392 -1.18922,-4.19356 -2.47882,-6.68891 -1.44312,-2.79413 -3.20629,-5.27295 -4.9293,-7.44472 -1.70766,-2.15406 -3.74598,-4.01406 -5.86107,-5.57291 -4.20183,-3.0941 -8.55364,-4.64232 -13.1889,-4.64232 -4.63406,0 -7.688,1.35573 -9.06499,4.09554 -0.683771,1.36282 -0.927048,3.03505 -0.5952,4.96827 0.331848,1.94621 1.0475,4.18293 2.26152,6.71371 1.34156,2.79413 2.90987,5.29775 4.57265,7.48724 1.67577,2.20366 3.8251,4.10853 6.06419,5.69573 4.52305,3.20274 9.39211,4.81474 14.5883,4.81474zm-0.742819 2.97954c-7.07981,0 -13.2184,-1.73836 -18.5965,-5.11825 -2.75162,-1.7301 -5.22808,-3.74362 -7.22034,-6.13623 -1.9781,-2.37371 -3.75307,-5.09345 -5.18556,-8.1344 -1.55177,-3.29368 -2.42922,-6.17638 -2.63707,-8.65166 -0.205486,-2.46347 0.249181,-4.53958 1.46674,-6.2248 2.42922,-3.36335 7.18373,-5.03912 14.6462,-5.03912 6.98888,0 12.9716,1.49745 18.0792,4.48053 2.56975,1.49981 4.86434,3.38107 6.88377,5.6355 2.03006,2.26861 4.03177,4.93402 5.63669,7.98678 1.65333,3.1437 2.42331,6.0016 2.77996,8.54891 0.35901,2.56149 -0.118095,4.84899 -1.26716,6.76804 -2.36309,3.9491 -7.25813,5.88469 -14.5859,5.88469zm59.3889 -38.6408c2.728,0 5.89059,-0.0720381 9.12876,-0.196038 3.36099,-0.129905 5.33554,-0.193676 6.04648,-0.193676 3.55467,0 6.67592,0.592838 9.3248,1.84347 2.56621,1.21284 4.64114,3.04686 6.13859,5.44065 1.48564,2.37253 1.84701,4.48171 1.20457,6.34644 -0.643619,1.86709 -2.46583,3.42004 -5.34145,4.65059 2.90632,1.9651 5.82446,3.93966 8.7544,5.91893 2.94293,1.98872 6.04884,3.97272 9.12522,6.00278 2.99371,1.97455 5.63669,3.67985 7.96789,5.02613 2.33474,1.34865 4.35063,2.37371 5.90122,3.05394 -2.35836,0 -4.71554,0 -6.9499,0 -0.993181,0 -1.80095,-0.107467 -2.43394,-0.321219 -0.621181,-0.21021 -1.36872,-0.662514 -2.28514,-1.27425 -3.73181,-2.48945 -7.37269,-4.90804 -10.9616,-7.33726 -3.5712,-2.41977 -7.13886,-4.81238 -10.6534,-7.22152 -1.50453,-1.03097 -2.74571,-1.74781 -3.67985,-2.05604 -1.03924,-0.343657 -2.11863,-0.491276 -3.33265,-0.491276 -0.242095,0 -0.48419,0 -0.60701,0 0.725105,1.20339 1.45375,2.41387 2.17768,3.61962 1.76434,2.93585 3.23109,5.37333 4.38015,7.28766 1.15497,1.92141 2.30286,3.2925 3.01851,4.19829 1.35928,1.72183 2.51661,2.94766 3.52869,3.596 -3.35036,0 -6.70072,0 -10.0511,0 0.25981,-0.609371 -0.0625905,-1.984 -1.09474,-4.14632 -0.514895,-1.07585 -1.2707,-2.76343 -2.62408,-5.04267 -1.3451,-2.26625 -2.9205,-5.13006 -4.95528,-8.55718 -0.478286,-0.80659 -0.961295,-1.61672 -1.44076,-2.42568 -2.18476,-3.68103 -4.08964,-6.68537 -5.46072,-8.9965 -1.36872,-2.30522 -2.58392,-3.94556 -3.29013,-4.9352 -1.4077,-1.97691 -2.62762,-3.23227 -3.54994,-3.78968 0.592838,0 1.30377,0 2.0147,0zm15.9629 16.8888c0.524343,0.0637714 0.927048,0.121638 1.55413,0.165333 0.506629,0.0342476 1.00263,0.0578667 1.60846,0.0578667 3.51097,0 5.71581,-0.746362 6.73497,-2.23554 1.01444,-1.4821 0.552686,-3.60072 -1.13135,-6.324 -1.39589,-2.26034 -3.13425,-3.95973 -5.13478,-5.03086 -2.08202,-1.11246 -4.57383,-1.63916 -7.54392,-1.63916 -1.06876,0 -2.0147,0.00708571 -2.59101,0.0354286 -0.576305,0.0283429 -1.14198,0.0744 -1.70293,0.133448 0.251543,0.813676 0.740457,2.12335 1.73836,3.87943 1.02389,1.8045 2.48118,4.32819 4.47227,7.64194 0.125181,0.206667 0.250362,0.410971 0.374362,0.62 0.540876,0.896343 1.08175,1.79623 1.62145,2.69611zm92.5453 21.0044c0.320038,-0.609371 -0.237371,-1.99699 -1.40415,-4.14632 -0.591657,-1.09002 -1.67577,-2.75989 -3.26533,-5.03912 -1.58011,-2.26743 -3.45547,-5.13006 -5.84808,-8.56072 -0.562133,-0.80659 -1.12899,-1.61672 -1.6923,-2.42568 -2.56739,-3.68103 -4.78404,-6.68537 -6.39604,-8.9965 -1.60728,-2.30168 -2.84728,-3.9621 -3.68221,-4.9352 -1.70411,-1.99227 -2.96301,-3.23227 -4.0613,-3.78968 1.42187,0 2.84491,0 4.38606,0 3.20038,0 6.7397,-0.0271619 10.6109,-0.0838476 3.9869,-0.0566857 6.33817,-0.0850286 7.16838,-0.0850286 0.118095,0 0.243276,0.0177143 0.493638,0.0271619 0.726286,0.0283429 1.4443,0.0271619 2.03596,0.0271619 1.41242,1.78442 2.95002,3.57238 4.49116,5.36979 -1.44785,-1.17623 -3.11299,-1.98872 -5.11234,-2.45402 -2.00053,-0.464114 -5.37333,-0.6944 -10.1278,-0.6944 -1.3085,0 -2.61581,0 -3.92312,0 0.325943,0.801867 1.13608,2.11863 2.32766,3.97627 1.18922,1.85528 2.976,4.56202 5.48552,8.12141 0.45821,0.648343 0.914057,1.29314 1.3699,1.93794 0.63299,0.0389714 1.37699,0.0673143 2.11627,0.0862095 0.739276,0.0200762 1.95802,0.0307048 3.65032,0.0307048 2.90278,0 5.1643,-0.0555048 7.01958,-0.16061 1.85646,-0.105105 3.54994,-0.270438 4.83954,-0.491276 -0.429867,1.24236 -1.49272,2.11627 -3.29722,2.63825 -1.8045,0.521981 -5.26232,0.777067 -10.3581,0.777067 -0.122819,0 -0.374362,-0.00826667 -0.871543,-0.0307048 -0.379086,-0.0165333 -0.748724,-0.0283429 -1.11246,-0.0283429 0.90461,1.28133 1.81394,2.57093 2.71973,3.85699 2.58629,3.66568 4.70373,6.49642 6.23307,8.48987 1.52933,1.99463 2.66187,3.42712 3.51924,4.29158 1.36046,0 2.72091,0 4.20773,0 4.94937,0 8.41901,-0.346019 10.3085,-0.97901 1.98872,-0.666057 3.18267,-1.73718 3.5653,-3.23817 0.873905,2.0395 1.87299,4.08728 3.00434,6.14686 -0.878629,0.158248 -1.90606,0.281067 -3.08583,0.361371 -1.18095,0.0826667 -2.51779,0.122819 -3.88297,0.122819 -1.116,0 -3.4909,-0.0188952 -6.8696,-0.0590476 -3.37989,-0.0413333 -6.24842,-0.0637714 -8.48278,-0.0637714 -2.10918,0 -4.09436,0 -6.07954,0z"/>
   </g>
   <g>
    <path id="_109390056" class="fil3" d="M818.356 862.389l0.0460571 -0.175962c-0.0200762,0.0873905 -0.0342476,0.1488 -0.0460571,0.175962z"/>
    <path id="_109389504" class="fil4" d="M813.288 949.708c-9.10987,18.3496 -45.9591,73.7741 -67.7985,85.2364 -1.86236,0.975467 -5.61661,-1.04396 -4.42503,-2.90396 6.23307,-4.91867 24.1658,-21.8464 28.4503,-28.5802 -0.684952,-4.39787 -4.63996,-1.78678 -6.52712,-0.231467 -6.33935,5.22217 -15.8236,16.8156 -26.6694,24.5142 -21.9586,15.5886 -53.6885,29.9454 -64.7835,34.9609 -17.6399,7.97379 -47.1779,12.7779 -50.9203,16.675 -2.97718,2.5981 -0.773524,3.54522 3.1189,2.89451 26.8312,-4.49943 42.6076,-9.08034 59.7432,-17.4379 10.4939,-5.11707 19.6298,-11.6619 37.6322,-20.4671 3.02442,-1.47973 5.90004,-3.87825 9.1819,-5.07455 3.03623,-1.10891 5.45364,2.09973 3.69756,3.98808 -47.4589,35.9765 -98.8091,52.0517 -152.861,52.0493 -55.2355,-0.0023619 -95.3832,-10.416 -141.361,-42.6749 -47.0208,-32.9864 -52.4107,-32.377 -79.5749,-87.0338l-11.7788 -23.7005c-7.41756,-20.0833 -9.8893,-25.0988 -12.7224,-47.2346 -2.91459,-22.7829 -2.57684,-30.0056 7.32545,-60.4459 6.07246,-18.6673 21.6079,-37.0217 39.2643,-47.7376 4.36716,-7.01722 54.1396,-24.2698 64.1056,-21.3741 56.8475,-5.07691 100.908,46.0619 132.278,78.9561 4.42149,4.5691 13.5573,12.0115 18.2221,16.1224 14.2647,9.97196 34.4755,19.0594 38.2593,19.8754 21.067,4.54667 42.806,7.60888 65.8239,2.66305 3.26415,1.36046 0.473562,3.27596 -5.02731,4.68956 -22.2633,5.72644 -41.6522,0.436952 -65.7436,-2.94293 -3.55467,-0.921143 -5.8339,1.21638 0.596381,3.54404 11.6111,4.20301 24.5591,6.0819 45.5706,6.5283 17.8525,0.379086 44.9376,-8.90674 58.5374,-18.626 12.6409,-9.02838 28.7408,-14.8918 55.3005,-70.3942 4.37897,-9.15356 6.71253,-22.2456 9.9944,-31.3094 0.444038,-2.4989 3.5157,-2.79531 2.82484,0.442857 -2.19657,10.2967 -4.58091,18.9566 -7.59825,27.195 -5.09227,13.9022 -11.6277,26.9883 -22.5196,44.3578 -0.0885714,0.937676 0.92941,2.24853 2.48709,1.47737 5.30011,-6.55901 8.74613,-12.9302 11.9087,-18.4642 6.22126,-10.8801 9.36495,-23.6037 17.3175,-41.3262 0.514895,-1.15143 3.15669,-1.6923 2.32648,0.996724 -1.41242,5.5304 -5.37215,14.2175 -6.71726,19.7502 0.387352,1.01916 3.26888,2.28278 4.51124,-0.858552 1.8104,-4.5821 4.06011,-10.7018 5.73825,-18.0934 3.50152,-15.4398 -0.187771,-35.0424 0.525524,-41.3451 0.906971,-7.9915 2.94884,-3.98808 3.844,0.701486 5.45128,28.507 6.61924,89.0237 0.676686,117.864 -1.0227,4.9411 -3.86171,12.8665 -7.39158,21.5961l-0.0637714 0.16179 -0.0625905 0.154705c-1.24827,3.17204 -0.467657,3.35745 1.83166,4.28804 1.43722,0.581029 2.6477,-0.710933 3.38107,-1.82339 1.32739,-4.47345 2.71619,-9.1819 4.41794,-14.3108 7.47307,-30.9504 8.37413,-48.6411 8.01749,-57.066 -1.40888,-33.3442 0.740457,-48.1722 -10.1491,-80.2174 -2.36545,-6.9629 -4.82773,-15.2886 -5.08164,-18.6673 -0.212571,-2.85082 -1.78796,-8.79219 1.92731,-6.96171 9.73813,26.3565 21.0623,53.2066 23.6403,81.9994 4.48171,50.0688 6.6464,94.527 -22.7014,153.621zm-35.8785 -290.706c1.96983,-5.13478 12.1614,1.2152 7.44236,2.40442 -7.79665,1.96392 -2.99017,11.6501 12.7708,21.6055 -8.26549,-1.68404 -26.7368,-16.8912 -20.2132,-24.0099zm-4.5384 -4.35299c-9.24922,8.19227 2.5733,19.4798 9.10396,23.9887 4.19829,2.89806 7.94072,4.06484 12.0552,6.5779 8.09779,4.94229 6.0323,9.84324 8.54773,11.9087 1.57893,1.29669 5.79021,0.911695 3.33501,-3.49916 -4.8856,-8.77448 -2.34773,-12.6917 -9.25985,-25.0952 -3.20629,-5.75832 -14.7855,-21.8476 -23.782,-13.8809zm-405.125 162.694c15.4469,-17.3966 40.8208,-31.1334 42.434,-32.514 1.29787,-0.677867 1.79977,-4.4451 -2.31349,-3.22754 -50.1007,23.5446 -74.426,70.0399 -59.6452,118.017 0.645981,3.52632 6.11379,4.63642 5.7477,1.28724 -1.14434,-10.4562 -3.37044,-33.7469 -2.98663,-45.5163 0.4216,-13.0082 17.1415,-36.3202 16.7636,-38.0467zm-9.46297 165.181c-17.1132,-31.3956 -26.0459,-69.5345 -27.2706,-72.4195 -0.425143,-1.9285 -5.11943,-5.8469 -4.97535,-0.577486 13.0188,72.0688 64.6501,138.797 131.782,167.25 4.7805,2.53669 8.11669,-1.99699 3.65977,-4.65886 -13.9093,-8.30328 -44.7782,-27.13 -59.8566,-38.1731 -16.6609,-12.1992 -40.9767,-50.2401 -43.3398,-51.421zm485.667 -187.794c-3.23463,-15.5295 -6.4173,-27.3721 -6.07128,-28.7397 0.369638,-1.45139 0.65661,-5.8032 3.9987,-2.20602 5.48316,15.0347 8.57135,37.0677 10.3144,57.1298 2.51779,28.9936 0.388533,56.6715 -8.10606,86.7032 -4.9659,17.5572 -7.81672,31.9093 -17.4037,47.975 -2.88861,3.91013 -6.52712,11.9276 -10.736,17.5584 -3.73771,5.1773 -7.97143,3.3787 -4.90922,-0.816038 9.51966,-13.046 19.0889,-40.9283 25.3267,-59.0394 9.99558,-29.0148 14.1537,-87.0267 7.58644,-118.565z"/>
    <g>
     <path id="_109389096" class="fil5" d="M665.082 720.601c-9.65547,1.17741 -16.8061,3.33737 -23.1585,10.2306 -4.30575,4.67185 -8.89493,18.8811 -8.02811,25.4247 2.71855,20.5427 15.0501,32.488 36.5351,28.4669 18.8326,-3.52514 35.8691,-11.2025 31.7971,-34.1213 -3.40941,-19.1917 -16.6077,-32.5069 -37.1457,-30.0009z"/>
     <path id="_109389192" class="fil5" d="M592.333 736.083c-6.96526,6.09371 26.66,9.76293 29.1034,8.14503 7.58762,-5.02141 -28.6251,-8.56309 -29.1034,-8.14503z"/>
     <path id="_109388856" class="fil5" d="M694.496 787.791c-6.05474,3.85463 -1.62145,8.03874 2.49063,11.9253 1.96983,1.86118 8.34343,10.4314 9.93299,10.723 9.11813,1.67459 -10.6534,-23.7749 -12.4236,-22.6483z"/>
     <path id="_109389336" class="fil5" d="M627.244 774.534c-2.56975,0.73101 -33.3395,18.2067 -19.0263,16.9774 2.42804,-0.209029 10.9096,-6.5909 13.3696,-8.31036 2.29105,-1.60255 4.79112,-2.69493 7.09752,-3.87589 4.68011,-2.39497 1.13017,-5.52095 -1.44076,-4.79112z"/>
     <path id="_109389264" class="fil5" d="M731.327 718.443c-1.86709,0.21021 -32.1621,9.63775 -18.5563,13.7191 1.50571,0.451124 32.3416,-15.2721 18.5563,-13.7191z"/>
     <path id="_109388376" class="fil5" d="M711.928 757.066c-16.0149,4.19002 13.6376,4.76514 17.0671,4.7427 6.9936,-0.0460571 6.56846,-5.1088 -0.9424,-5.06747 -3.8936,0.0212571 -12.9456,-0.506629 -16.1247,0.324762z"/>
     <path id="_109388352" class="fil5" d="M683.214 690.016c-3.2677,0.638895 -10.0901,23.6273 -5.58236,22.5999 4.10735,-0.937676 10.7644,-23.6143 5.58236,-22.5999z"/>
     <path id="_109388088" class="fil5" d="M658.806 793.213c-4.78286,5.2576 -2.11154,5.28594 -3.12362,11.8615 -0.305867,1.98754 -2.11154,12.2571 1.58366,11.7056 4.50179,-0.670781 4.59036,-26.9222 1.53996,-23.5671z"/>
     <path id="_109388424" class="fil5" d="M625.865 693.776c-2.39615,2.1765 9.32362,21.8653 12.4283,18.4229 2.12808,-2.35836 -9.64248,-20.9525 -12.4283,-18.4229z"/>
    </g>
   </g>
  </g>
 </g>
</svg>
